#!OML:ASF I:\Actors\actors\Patient Classification 2\Patient 1\Session 1\actor1.ASF
:FULLY-SPECIFIED
:DEGREES
395
root -0.43214 18.3895 4.36649 24.6758 -8.41326 -13.9868
lowerback 41.2837 -1.47345 -4.15838
upperback 13.9382 -3.63565 -0.740275
thorax -4.00709 -1.98641 2.7012
lowerneck 10.243 -18.1093 -15.3911
upperneck 24.746 -27.3786 13.4528
head 10.4786 -13.6402 4.68182
rclavicle -3.49861e-014 -2.94201e-014
rhumerus 48.8924 25.0855 -44.6434
rradius 44.5989
rwrist 13.1217
rhand 10.3272 -38.2048
rfingers 7.12502
rthumb 35.4366 -64.6578
lclavicle -3.49861e-014 -2.94201e-014
lhumerus 10.9502 -13.5191 64.8739
lradius 54.8621
lwrist 12.6531
lhand -12.006 -27.5032
lfingers 7.12502
lthumb 14.0512 2.0018
rfemur -31.7224 3.91893 27.1759
rtibia 16.1495
rfoot -10.6939 -6.47244
rtoes -11.8859
lfemur -43.7426 12.273 -1.891
ltibia 44.1577
lfoot -21.3213 8.59926
ltoes -56.2245
396
root -0.410776 18.3921 4.37744 24.8389 -8.1703 -14.2719
lowerback 41.6531 -1.20712 -4.45138
upperback 13.9969 -3.45019 -0.815274
thorax -4.04527 -1.90522 2.7084
lowerneck 10.1083 -18.1515 -15.3222
upperneck 24.7233 -27.386 13.3979
head 10.4743 -13.636 4.63955
rclavicle 9.54166e-014 -1.59028e-015
rhumerus 48.5799 25.028 -45.1984
rradius 43.8988
rwrist 15.0856
rhand 9.5396 -37.3505
rfingers 7.12502
rthumb 34.6895 -63.9785
lclavicle 9.54166e-014 -1.59028e-015
lhumerus 10.9342 -14.0738 64.602
lradius 55.6291
lwrist 13.463
lhand -11.6333 -27.4382
lfingers 7.12502
lthumb 14.4104 2.04155
rfemur -31.4949 4.02472 27.3794
rtibia 15.4794
rfoot -10.5717 -6.82925
rtoes -11.7261
lfemur -43.968 12.066 -1.56333
ltibia 44.2917
lfoot -21.4304 8.72365
ltoes -56.2009
397
root -0.385128 18.3934 4.39625 24.9764 -7.80897 -14.5397
lowerback 41.9438 -1.0724 -4.53316
upperback 14.0803 -3.34342 -0.962727
thorax -4.04459 -1.85161 2.5572
lowerneck 9.94615 -18.2049 -15.2676
upperneck 24.5448 -27.3939 13.3707
head 10.4213 -13.6331 4.60683
rclavicle -1.27222e-014 4.53229e-014
rhumerus 48.3616 25.0618 -45.6766
rradius 43.215
rwrist 17.1799
rhand 8.719 -36.5153
rfingers 7.12502
rthumb 33.9104 -63.319
lclavicle -1.27222e-014 4.53229e-014
lhumerus 10.9009 -14.6199 64.2313
lradius 56.2828
lwrist 14.1087
lhand -11.3348 -27.1971
lfingers 7.12502
lthumb 14.6979 2.26192
rfemur -31.2434 3.9108 27.6341
rtibia 14.8231
rfoot -10.3925 -7.06786
rtoes -11.5416
lfemur -44.2096 11.8109 -1.25526
ltibia 44.4206
lfoot -21.5472 8.82165
ltoes -56.2387
398
root -0.358446 18.3933 4.41356 25.1401 -7.45543 -14.7645
lowerback 42.1997 -0.935278 -4.63514
upperback 14.1383 -3.24198 -1.12706
thorax -4.06047 -1.79867 2.39996
lowerneck 9.71901 -18.1563 -15.455
upperneck 24.816 -27.3217 13.3271
head 10.5738 -13.5968 4.59524
rclavicle -5.40694e-014 -7.79236e-014
rhumerus 48.2168 25.1716 -46.1824
rradius 42.5363
rwrist 19.4471
rhand 8.12137 -35.8572
rfingers 7.12502
rthumb 33.3424 -62.7845
lclavicle -5.40694e-014 -7.79236e-014
lhumerus 10.786 -15.0634 63.8923
lradius 56.705
lwrist 14.3828
lhand -11.4737 -27.3554
lfingers 7.12502
lthumb 14.5641 2.11336
rfemur -30.9993 3.70011 27.8831
rtibia 14.0856
rfoot -10.0976 -7.26791
rtoes -11.5454
lfemur -44.5045 11.6579 -1.02977
ltibia 44.525
lfoot -21.5305 8.85402
ltoes -56.3443
399
root -0.335549 18.3954 4.42696 25.2443 -7.17859 -15.018
lowerback 42.5553 -0.719789 -4.82309
upperback 14.1821 -3.08891 -1.27759
thorax -4.11551 -1.72438 2.28286
lowerneck 9.65282 -18.051 -15.9252
upperneck 24.9298 -27.2537 13.5965
head 10.7367 -13.583 4.73653
rclavicle 2.54444e-014 0
rhumerus 48.1124 25.3572 -46.6523
rradius 41.9902
rwrist 21.6507
rhand 7.56459 -35.1577
rfingers 7.12502
rthumb 32.8129 -62.1972
lclavicle 2.54444e-014 0
lhumerus 10.6134 -15.3274 63.6055
lradius 56.9035
lwrist 14.3454
lhand -11.9616 -28.3351
lfingers 7.12502
lthumb 14.094 1.16695
rfemur -30.6323 3.61679 28.1336
rtibia 13.2461
rfoot -9.81848 -7.53772
rtoes -11.5448
lfemur -44.6932 11.6119 -0.778343
ltibia 44.6052
lfoot -21.4776 8.77786
ltoes -56.3173
400
root -0.312031 18.4013 4.44301 25.3015 -6.96482 -15.2662
lowerback 42.9702 -0.504221 -5.00909
upperback 14.1882 -2.94761 -1.47511
thorax -4.22879 -1.65094 2.12003
lowerneck 9.55951 -18.0219 -16.0706
upperneck 24.9864 -27.1734 13.5068
head 10.7682 -13.5535 4.7246
rclavicle 4.13472e-014 2.22639e-014
rhumerus 47.996 25.7254 -47.0872
rradius 41.6371
rwrist 23.4995
rhand 6.6831 -34.4581
rfingers 7.12502
rthumb 31.974 -61.6693
lclavicle 4.13472e-014 2.22639e-014
lhumerus 10.2804 -15.3144 63.3922
lradius 57.264
lwrist 14.562
lhand -11.9053 -28.7747
lfingers 7.12502
lthumb 14.1483 0.72356
rfemur -30.1498 3.60649 28.3404
rtibia 12.3186
rfoot -9.55123 -7.8224
rtoes -11.3549
lfemur -44.7721 11.5393 -0.542159
ltibia 44.6619
lfoot -21.4499 8.7993
ltoes -56.323
401
root -0.286204 18.4072 4.46032 25.4055 -6.76259 -15.5223
lowerback 43.1744 -0.24653 -5.2013
upperback 14.2709 -2.74321 -1.62961
thorax -4.19837 -1.55651 1.97589
lowerneck 9.32855 -18.0501 -16.0128
upperneck 24.9845 -27.0846 13.1982
head 10.73 -13.5045 4.60575
rclavicle -3.81667e-014 1.19271e-014
rhumerus 48.0268 26.1355 -47.3064
rradius 41.3751
rwrist 24.9042
rhand 5.61559 -33.9926
rfingers 7.12502
rthumb 30.957 -61.4023
lclavicle -3.81667e-014 1.19271e-014
lhumerus 9.97723 -14.8775 63.4621
lradius 57.8465
lwrist 15.2139
lhand -10.8946 -28.0899
lfingers 7.12502
lthumb 15.122 1.33768
rfemur -29.6643 3.53624 28.5717
rtibia 11.281
rfoot -9.14932 -8.07914
rtoes -11.2825
lfemur -44.8719 11.4332 -0.316268
ltibia 44.6963
lfoot -21.47 8.97314
ltoes -56.465
402
root -0.261093 18.4118 4.47956 25.5468 -6.49863 -15.8288
lowerback 43.4412 0.0272741 -5.34316
upperback 14.2375 -2.50243 -1.71054
thorax -4.31475 -1.43978 1.87345
lowerneck 8.93073 -17.9652 -16.1693
upperneck 25.2946 -26.8812 12.9088
head 10.8586 -13.4006 4.51594
rclavicle 4.77083e-014 1.11319e-014
rhumerus 48.0652 26.734 -47.314
rradius 41.1846
rwrist 25.9341
rhand 4.84975 -33.6894
rfingers 7.12502
rthumb 30.2267 -61.2354
lclavicle 4.77083e-014 1.11319e-014
lhumerus 9.48909 -14.4133 63.7314
lradius 57.8456
lwrist 15.1394
lhand -11.2429 -28.8579
lfingers 7.12502
lthumb 14.7865 0.59461
rfemur -29.1811 3.42093 28.8892
rtibia 10.1673
rfoot -8.67259 -8.36843
rtoes -11.488
lfemur -45 11.2554 0.00897817
ltibia 44.7141
lfoot -21.545 9.10385
ltoes -56.4255
403
root -0.238555 18.4179 4.5027 25.7033 -6.18581 -16.0956
lowerback 43.6589 0.328526 -5.50427
upperback 14.1719 -2.23032 -1.74235
thorax -4.45173 -1.30942 1.8197
lowerneck 8.78043 -18.0029 -16.2398
upperneck 25.4335 -26.8192 12.5586
head 10.8816 -13.3759 4.39875
rclavicle -1.27222e-014 2.54444e-014
rhumerus 48.1105 27.4059 -47.1227
rradius 41.1271
rwrist 26.6539
rhand 4.53239 -33.2715
rfingers 7.12502
rthumb 29.9239 -60.8725
lclavicle -1.27222e-014 2.54444e-014
lhumerus 8.86992 -13.893 64.1148
lradius 57.7466
lwrist 15.2312
lhand -12.0677 -29.5466
lfingers 7.12502
lthumb 13.9917 -0.0374942
rfemur -28.711 3.41578 29.1102
rtibia 9.03523
rfoot -8.31174 -8.84615
rtoes -11.8628
lfemur -45.1478 10.986 0.344146
ltibia 44.7208
lfoot -21.6072 9.14565
ltoes -56.1578
